<svg xmlns="http://www.w3.org/2000/svg" width="800" height="450"><path fill="#f2f2f2" fill-rule="evenodd" stroke="#c4c4c4" stroke-width="5" d="M0 0h800v450H0z"/><g fill="gray" font-family="Sans" font-size="124.397" font-weight="400" letter-spacing="0" style="line-height:125%" word-spacing="0"><path d="M93.807 179.596h16.522l40.21 75.865v-75.865h11.905v90.686h-16.521l-40.21-75.865v75.865H93.806v-90.686M223.67 187.918c-8.908 0-15.995 3.32-21.259 9.961-5.224 6.641-7.835 15.692-7.835 27.151 0 11.42 2.611 20.45 7.835 27.09 5.264 6.642 12.35 9.962 21.26 9.962 8.908 0 15.954-3.32 21.137-9.961 5.224-6.641 7.835-15.671 7.836-27.09 0-11.46-2.612-20.51-7.836-27.152-5.183-6.64-12.23-9.961-21.138-9.961m0-9.962c12.715 0 22.88 4.273 30.492 12.817 7.613 8.503 11.42 19.923 11.42 34.257 0 14.295-3.807 25.714-11.42 34.258-7.613 8.504-17.777 12.756-30.492 12.756-12.755 0-22.96-4.252-30.613-12.756-7.613-8.504-11.42-19.923-11.42-34.258 0-14.334 3.807-25.754 11.42-34.257 7.653-8.544 17.858-12.816 30.613-12.817M324.378 179.596h12.27v90.686h-12.27v-90.686M361.065 179.596h18.283l23.142 61.713 23.264-61.713h18.283v90.686H432.07v-79.63l-23.385 62.198h-12.33L372.97 190.65v79.631h-11.905v-90.686M498.764 191.684l-16.643 45.13h33.347l-16.704-45.13m-6.924-12.088h13.91l34.56 90.686h-12.755l-8.26-23.264h-40.879l-8.26 23.264h-12.938l34.622-90.686M613.138 257.344v-24.357h-20.044v-10.083h32.192v38.935c-4.737 3.361-9.961 5.912-15.67 7.653-5.71 1.701-11.805 2.552-18.283 2.552-14.173 0-25.269-4.13-33.286-12.392-7.977-8.3-11.966-19.841-11.966-34.622 0-14.82 3.989-26.36 11.966-34.622 8.017-8.3 19.113-12.451 33.286-12.452 5.912 0 11.52.73 16.825 2.187 5.345 1.458 10.265 3.604 14.76 6.439v13.059c-4.536-3.847-9.354-6.742-14.457-8.686-5.102-1.944-10.467-2.916-16.096-2.916-11.095 0-19.437 3.098-25.025 9.294-5.548 6.195-8.321 15.428-8.321 27.697 0 12.23 2.773 21.442 8.321 27.637 5.588 6.196 13.93 9.294 25.025 9.294 4.333 0 8.2-.365 11.602-1.094 3.401-.77 6.458-1.943 9.171-3.523M647.76 179.596h57.34v10.326h-45.07v26.848h43.187v10.326H660.03v32.86h46.163v10.326H647.76v-90.686" style="-inkscape-font-specification:Sans"/></g></svg>